<svg xmlns="http://www.w3.org/2000/svg" xmlns:xlink="http://www.w3.org/1999/xlink" version="1.1" x="0px" y="0px" viewBox="0 0 32.962 33.785" enable-background="new 0 0 32.962 27.028" xml:space="preserve"><g><path fill="#000000" d="M12.924,4.688c0.026,0.026,0.052,0.052,0.078,0.078C12.976,4.741,12.95,4.715,12.924,4.688L12.924,4.688z"/><path fill="#000000" d="M12.56,2.89C12.69,2.837,12.456,2.916,12.56,2.89L12.56,2.89L12.56,2.89z"/><path fill="#000000" d="M31.539,18.14c0.364,0.209-1.69,2.034-1.872,2.19c-0.832,0.782-1.482,1.512-2.781,1.173   c0.208-1.694,0.39-3.024-0.599-4.483c-0.364-0.548-0.313-1.147-0.676-1.721c-0.521-0.783-0.91-1.564-1.378-2.373   c-0.65-1.147-2.21-2.294-2.548-3.519c-0.39-1.356-1.273-2.582-1.82-3.885c0.78-0.938,1.742-1.382,0.806-2.32   c-0.44-0.443-0.701-0.938-1.247-1.303c-0.469-0.339-1.326-0.365-1.872-0.678c-0.78-0.443-2.444-0.573-3.042,0.313   c-0.598,0.912-1.664,0.417-2.313,1.068c0.234-0.104,0-0.026,0.312-0.104c0,0,0.26,0.183,0.208,0.392   c-0.104-0.053-0.364,0.052-0.468,0.078l-0.156-0.235c0,0.756,0.39,1.539,0.858,2.112c0.442-0.235,1.17,0.104,1.56,0.339   c0.572,0.339,1.17-0.521,1.69,0c-0.442,0.521-2.392,0.547-3.12,0.573c0.156,0.73,2.08,0.417,2.678,1.095   c0.078,1.564-0.468,2.607-0.676,4.119c-0.234,1.747,0.78,2.972,1.092,4.589c0.416,2.085-0.026,4.067,0,6.151   c0.026,1.356-0.546,1.278-1.326,2.19c-0.961,1.095,1.222,1.147,1.742,0.521c0.832-0.99,0.442-1.721,0.91-2.789   c0.234-0.47,0.156-1.095,0.234-1.616c0.078-0.601,0.469-1.069,0.521-1.695c0.025,0.548,0.571,0.939,0.415,1.46   c-0.155,0.678-0.415,1.199-0.441,1.877c-0.078,1.539-0.624,2.503-1.118,3.858c-0.364,0.991,1.196,0.548,1.612,0.443   c0.988-0.209,0.285-0.99,0.546-1.694c0.104-0.313,1.222-3.285,1.248-3.285c0.286,0.208,0.182,1.122,0.363,1.434   c0.156,0.365-0.728,0.601-0.936,0.652l-0.363,1.199c1.04-0.313,2.21-0.86,3.301-0.652c-0.935,0.938-1.039,1.669,0.442,1.669   c0.91,0,2.782-1.096,2.964-2.033c0,0,1.741-0.026,1.924-0.052c0.78-0.157,1.118-0.262,1.561-0.939   C30.161,21.634,32.839,18.923,31.539,18.14L31.539,18.14z M16.2,2.421c-1.638,0.026-0.182-1.121,0.313,0H16.2L16.2,2.421z    M18.487,5.679c-0.26-0.573-1.065-3.597-0.39-3.754c-0.364,0.13,0.025,4.197,1.196,4.171C19.06,6.201,18.669,6.096,18.487,5.679   C18.254,5.184,18.669,6.096,18.487,5.679L18.487,5.679z"/><path fill="#000000" d="M14.12,9.068c0-0.13-0.026-0.678-0.182-0.913c0.052,0.13-0.078,0.365-0.078,0.365   c-0.702,0.338-0.234-0.574,0-0.443c-0.286-0.235-0.754-0.131-1.014-0.366c-0.286-0.26-0.39-0.495-0.78-0.547   c-0.156-0.026-0.572-0.026-0.624-0.208c-0.078-0.26-0.286-0.547-0.468-0.756c-0.13-0.183-0.13-0.391-0.156-0.626   c-0.026-0.052-0.052-0.547-0.182-0.365c-0.312,0.391-0.338,1.095-0.416,1.564c-0.026,0.156-0.026,0.365-0.104,0.521   c-0.104,0.182-0.416,0.6-0.598,0.391c-0.234-0.234-0.521-0.521-0.832-0.6C8.452,7.061,8.01,7.061,8.036,7.374   c0.104,1.381,0.884,2.659,0.39,4.041c-0.156,0.443-0.494,0.521-0.91,0.625c-0.545,0.157-1.092,0.339-1.586,0.626   c-0.494,0.26-0.988,0.574-1.326,1.017c-0.286,0.365-0.494,0.782-0.702,1.2c-0.416,0.938-0.754,1.903-1.066,2.867   c-0.104,0.339-0.208,0.704-0.312,1.043c-0.026,0.052-0.104,0.442-0.156,0.442c0.078,0,0.13-2.241,0.13-2.397   c0.026-0.626,0.078-1.251,0.104-1.878c0.026-0.495,0.052-1.016,0.234-1.512c0.26-0.704,0.676-1.355,1.118-1.955   c0.26-0.339,0.702-0.756,0.832-1.147c0.052-0.183,0.104-0.625-0.13-0.73C4.474,9.538,4.241,9.668,4.11,9.772   c-0.39,0.339-0.728,0.782-1.04,1.199c-0.416,0.574-0.832,1.174-1.144,1.825c-0.338,0.704-0.442,1.33-0.494,2.086   c-0.078,1.017-0.208,2.033-0.286,3.075c-0.052,0.861-0.156,1.825,0.026,2.686c0.182,0.757,0.546,1.461,0.936,2.086   c0.312,0.495,0.572,0.809,1.04,1.173c0.442,0.34,1.014,0.417,1.56,0.496c0.442,0.052,0.858,0.025,1.3,0.025   c0.754,0,1.508,0.078,2.262-0.13c0.806-0.209,1.742-0.234,2.496-0.6c-0.156-0.235-0.338-0.418-0.312-0.73   c0.026-0.286,0.078-0.548,0.13-0.834c0.104-0.729,0.156-1.486,0.156-2.216c0-0.782-0.234-1.435-0.39-2.164   c-0.13-0.6-0.234-1.199-0.286-1.799c0,0,0.026-0.025,0.052-0.025c0.13,0.625,0.26,1.251,0.416,1.876   c0.183,0.704,0.39,1.305,0.416,2.06c0,0.704-0.078,1.435-0.156,2.164c-0.052,0.234-0.104,0.495-0.13,0.756   c-0.052,0.339,0,0.652,0.312,0.782c0.312,0.104,0.858,0,1.17-0.13c0.208-0.104,0.364-0.157,0.338-0.521   c-0.026-0.183-0.052-0.313-0.104-0.521c-0.052-0.209-0.26-0.365-0.39-0.548c-0.078-0.104-0.052-0.339-0.052-0.469   c0.026-0.313,0.052-0.626,0.104-0.938c0.078-0.6,0.156-1.2,0.312-1.773c0.286-1.173,0.468-2.372,0.676-3.545   c0.078-0.548,0.156-0.991,0.052-1.538s-0.208-1.095-0.39-1.643c-0.078-0.261-0.078-0.625,0.052-0.913   c0.078-0.182,0.364-0.339,0.52-0.469c0.26-0.235,0.494-0.443,0.728-0.704C14.25,9.59,14.12,9.408,14.12,9.068L14.12,9.068   L14.12,9.068z M11.884,8.104c0.208-0.079,0.65,0.365,0.65,0.365c-0.182,0.417-0.52,0.521-0.962,0.443   C11.338,8.886,11.702,8.182,11.884,8.104L11.884,8.104z M13.054,14.726c-0.026-0.053-0.078-0.053-0.156-0.053   C12.976,14.673,13.028,14.673,13.054,14.726L13.054,14.726z"/></g><text x="0" y="42.028" fill="#000000" font-size="5px" font-weight="bold" font-family="'Helvetica Neue', Helvetica, Arial-Unicode, Arial, Sans-serif">Created by Amelia Wattenberger</text><text x="0" y="47.028" fill="#000000" font-size="5px" font-weight="bold" font-family="'Helvetica Neue', Helvetica, Arial-Unicode, Arial, Sans-serif">from the Noun Project</text></svg>